<?xml version="1.0" encoding="utf-8"?>
<!-- Generator: Adobe Illustrator 23.0.2, SVG Export Plug-In . SVG Version: 6.00 Build 0)  -->
<svg version="1.1" id="Ebene_1" xmlns="http://www.w3.org/2000/svg" xmlns:xlink="http://www.w3.org/1999/xlink" x="0px" y="0px"
	 viewBox="0 0 216.43 216.43" style="enable-background:new 0 0 216.43 216.43;" xml:space="preserve">
<g>
	<polygon points="166.104,93.253 166.104,88.143 128.287,88.143 128.287,50.325 123.176,50.325 123.176,88.143 93.253,88.143 
		93.253,50.325 88.143,50.325 88.143,88.143 50.326,88.143 50.326,93.253 88.143,93.253 88.143,123.176 50.326,123.176 
		50.326,128.287 93.248,128.287 93.248,126.056 93.253,126.056 93.253,93.253 123.176,93.253 123.176,166.104 128.287,166.104 
		128.287,128.287 166.104,128.287 166.104,123.176 128.287,123.176 128.287,93.253 	"/>
	<path d="M128.612,166.43h-5.761V93.579H93.579l-0.005,35.033H50v-5.761h37.818V93.579H50v-5.761h37.818V50h5.761v37.817h29.272V50
		h5.761v37.817h37.818v5.761h-37.818v29.272h37.818v5.761h-37.818V166.43z M123.502,165.779h4.46v-37.818h37.818v-4.46h-37.818
		V92.928h37.818v-4.46h-37.818V50.651h-4.46v37.817H92.928V50.651h-4.46v37.817H50.651v4.46h37.818v30.573H50.651v4.46h42.272
		l0.005-35.033h30.573V165.779z"/>
</g>
</svg>
